<svg xmlns="http://www.w3.org/2000/svg" width="1200" height="630" viewBox="0 0 1200 630">
  <defs>
    <linearGradient id="bg" x1="0%" y1="0%" x2="100%" y2="100%">
      <stop offset="0%" stop-color="#1a1410"/>
      <stop offset="50%" stop-color="#2a1f12"/>
      <stop offset="100%" stop-color="#5c4a2e"/>
    </linearGradient>
    <pattern id="stars" x="0" y="0" width="80" height="80" patternUnits="userSpaceOnUse">
      <path d="M40 5L48 30L73 40L48 50L40 75L32 50L7 40L32 30Z" fill="none" stroke="#e8c97a" stroke-width="0.5" opacity="0.15"/>
    </pattern>
  </defs>

  <rect width="1200" height="630" fill="url(#bg)"/>
  <rect width="1200" height="630" fill="url(#stars)"/>

  <!-- زخارف الزوايا -->
  <path d="M40 40 L40 110 M40 40 L110 40" stroke="#e8c97a" stroke-width="2" opacity="0.4" fill="none"/>
  <path d="M1160 590 L1160 520 M1160 590 L1090 590" stroke="#e8c97a" stroke-width="2" opacity="0.4" fill="none"/>

  <!-- النجمة الكبيرة -->
  <g transform="translate(600, 200)">
    <path d="M0 -70 L20 -22 L70 -22 L30 8 L45 56 L0 28 L-45 56 L-30 8 L-70 -22 L-20 -22 Z" fill="#e8c97a"/>
  </g>

  <!-- العنوان الرئيسي -->
  <text x="600" y="360" text-anchor="middle" font-family="Georgia, serif" font-size="72" font-weight="700" fill="#f5ebd6" letter-spacing="-1">مكتبة الحكمة</text>

  <!-- العنوان الفرعي -->
  <text x="600" y="410" text-anchor="middle" font-family="sans-serif" font-size="26" fill="#e8c97a" letter-spacing="8">AL HEEKMAH LIBRARY</text>

  <!-- الوصف -->
  <text x="600" y="475" text-anchor="middle" font-family="Georgia, serif" font-size="24" fill="#e8c97a" opacity="0.75" font-style="italic">منصة إسلامية متكاملة للقرآن الكريم والأذكار والعلم النافع</text>
</svg>
